<?xml version="1.0" standalone="no"?>
<!DOCTYPE svg PUBLIC "-//W3C//DTD SVG 20010904//EN"
 "http://www.w3.org/TR/2001/REC-SVG-20010904/DTD/svg10.dtd">
<svg version="1.0" xmlns="http://www.w3.org/2000/svg"
 width="700.000000pt" height="700.000000pt" viewBox="0 0 700.000000 700.000000"
 preserveAspectRatio="xMidYMid meet">
<metadata>
Created by potrace 1.14, written by Peter Selinger 2001-2017
</metadata>
<g transform="translate(0.000000,700.000000) scale(0.100000,-0.100000)"
fill="#000000" stroke="none">
<path d="M3159 6776 c-2 -2 -44 -7 -93 -11 -49 -4 -98 -9 -110 -11 -11 -2 -41
-7 -65 -10 -25 -3 -90 -14 -145 -25 -542 -108 -1022 -329 -1466 -677 -208
-162 -483 -450 -628 -657 -31 -44 -59 -82 -62 -85 -21 -17 -157 -250 -225
-385 -86 -169 -145 -312 -201 -485 -34 -103 -88 -311 -99 -380 -3 -19 -8 -42
-10 -50 -2 -8 -6 -33 -10 -55 -3 -22 -8 -53 -11 -69 -5 -29 -7 -51 -22 -191
-14 -142 -7 -583 13 -706 2 -13 6 -46 10 -72 4 -27 8 -57 10 -67 2 -9 6 -33 9
-51 47 -293 179 -678 333 -969 193 -363 433 -673 739 -950 283 -257 656 -489
1009 -628 156 -61 331 -119 416 -138 11 -2 27 -6 37 -8 62 -15 171 -37 257
-51 222 -36 328 -43 585 -39 129 1 253 5 275 7 22 3 65 8 95 12 30 4 71 9 90
11 156 19 445 92 646 164 969 347 1737 1131 2067 2110 41 121 91 302 103 370
3 14 11 57 19 95 8 39 17 99 21 135 3 36 8 68 10 71 17 30 26 559 11 719 -83
923 -556 1785 -1297 2367 -362 283 -804 498 -1260 613 -63 16 -126 31 -140 34
-14 2 -52 9 -85 15 -82 14 -110 19 -180 27 -33 3 -69 9 -80 11 -24 6 -561 14
-566 9z m241 -223 c0 -7 -3168 -3173 -3176 -3173 -7 0 2 262 12 350 9 87 36
245 43 258 4 8 572 578 1261 1267 1228 1228 1255 1255 1300 1261 25 4 52 8 60
9 70 8 139 17 160 21 14 2 86 7 160 10 74 4 136 8 138 9 5 4 42 -7 42 -12z
m515 -34 c66 -11 155 -27 197 -37 l78 -17 -448 -447 -447 -446 -65 -6 c-262
-22 -530 -149 -724 -341 -163 -162 -306 -419 -306 -550 0 -24 11 -62 26 -94
l27 -53 -964 -964 c-530 -530 -966 -960 -970 -956 -12 12 -62 268 -75 382 -4
30 -8 61 -9 69 -1 8 779 796 1734 1751 l1736 1738 45 -5 c25 -3 99 -14 165
-24z m-1555 -132 c0 -1 -445 -447 -990 -992 l-990 -990 51 130 c80 206 194
430 307 600 35 54 185 256 203 275 8 8 39 44 70 80 289 333 679 620 1089 800
128 57 260 106 260 97z m2165 -31 c50 -19 110 -43 135 -54 102 -45 160 -73
160 -77 0 -8 -809 -815 -817 -815 -5 0 -42 18 -84 39 -82 42 -248 101 -284
101 -12 0 -25 3 -29 7 -6 6 812 833 824 833 3 0 46 -15 95 -34z m621 -318 c60
-40 133 -91 162 -113 l52 -40 -467 -467 -467 -467 -33 55 c-47 78 -104 154
-162 214 l-50 52 417 418 c229 230 422 419 428 419 6 1 60 -32 120 -71z m528
-439 l136 -142 -307 -306 c-169 -168 -445 -444 -614 -614 l-307 -307 1 42 c0
44 -11 182 -17 215 -2 10 -11 57 -20 106 -9 48 -21 97 -25 110 -8 20 41 72
497 530 279 279 510 507 514 507 3 0 67 -64 142 -141z m-2144 -249 c167 -25
276 -66 403 -152 74 -51 174 -151 225 -225 78 -116 157 -313 177 -443 4 -25 9
-54 12 -65 8 -39 16 -171 17 -255 0 -229 -31 -349 -123 -480 -49 -70 -188
-197 -306 -280 -66 -47 -143 -107 -171 -135 l-51 -50 4 -210 3 -211 -328 1
-327 0 -1 250 c0 169 4 270 13 312 15 74 58 173 104 240 48 71 170 187 289
278 58 43 116 92 130 109 71 84 101 181 96 312 -10 256 -163 389 -400 349 -93
-16 -194 -84 -232 -157 -17 -33 -13 -33 -91 -9 -35 11 -63 17 -63 15 0 -2 -17
2 -37 10 -21 8 -76 24 -123 36 -47 13 -114 31 -150 41 -36 10 -91 25 -122 34
-32 8 -58 17 -58 19 0 14 36 101 62 151 119 227 347 413 587 479 147 41 332
55 461 36z m2478 -157 c69 -103 152 -238 152 -250 0 -4 -569 -577 -1264 -1272
l-1265 -1265 -280 0 c-155 -1 -281 2 -281 5 0 3 45 50 101 103 55 53 98 99 95
104 -2 4 100 7 227 7 128 -1 250 3 272 7 58 13 110 51 142 105 l28 48 1 197 0
198 134 97 c260 188 390 340 457 537 l28 80 693 693 c380 381 694 693 696 693
2 0 31 -39 64 -87z m295 -530 c54 -138 117 -315 117 -328 0 -12 -2478 -2502
-2481 -2493 0 2 -1 93 -2 203 l-2 200 -29 49 -28 49 1193 1193 c769 769 1197
1190 1203 1184 5 -5 18 -31 29 -57z m-2848 -224 c16 -27 20 -52 20 -120 0
-107 -14 -129 -129 -214 -292 -215 -457 -446 -491 -687 -6 -42 -39 -76 -978
-1015 -535 -535 -974 -973 -977 -973 -11 1 -152 201 -218 309 -12 20 69 103
1340 1376 744 745 1354 1359 1356 1364 7 20 58 -7 77 -40z m-751 -63 c109 -30
200 -57 203 -60 3 -2 -525 -534 -1172 -1181 l-1177 -1176 -30 63 c-16 35 -41
90 -54 123 -14 33 -29 69 -34 80 -6 11 -19 45 -29 75 l-19 55 1041 1042 c681
682 1047 1041 1057 1038 8 -2 104 -29 214 -59z m3802 -382 c18 -96 31 -185 39
-279 4 -38 8 -84 10 -101 2 -30 -99 -133 -1676 -1710 l-1678 -1678 -53 2
c-103 5 -423 54 -437 67 -1 2 224 231 500 509 426 428 509 507 539 513 56 10
93 29 126 65 34 36 68 113 58 130 -6 9 2546 2569 2554 2563 1 -1 9 -38 18 -81z
m50 -807 c-7 -92 -14 -167 -21 -212 -2 -16 -7 -52 -11 -80 -3 -27 -17 -101
-30 -163 l-24 -112 -1154 -1155 -1154 -1154 -123 -25 c-180 -36 -229 -43 -459
-61 l-75 -6 1525 1525 c839 839 1527 1526 1528 1526 2 0 1 -37 -2 -83z m-3710
-266 c0 -132 2 -140 28 -185 16 -27 46 -59 70 -74 l42 -27 -827 -828 -827
-827 -49 41 c-75 65 -233 223 -233 234 0 7 1790 1807 1795 1805 0 0 0 -62 1
-139z m873 -1061 l0 -330 -328 0 -328 0 0 323 c0 177 1 325 3 329 2 3 150 6
329 7 l325 0 -1 -329z m-875 40 l0 -281 -499 -499 -499 -499 -30 16 c-17 8
-95 58 -173 109 l-142 94 666 670 c367 369 669 670 672 670 4 0 6 -126 5 -280z
m3423 148 c-258 -554 -679 -1029 -1202 -1354 -108 -67 -416 -227 -423 -219 -4
4 1661 1673 1666 1670 1 -1 -17 -45 -41 -97z m-3305 -707 c57 -29 58 -29 245
-29 103 0 191 -1 196 -1 10 -1 -941 -951 -953 -951 -5 0 -19 4 -32 9 -13 6
-67 26 -121 45 -53 20 -131 50 -173 68 l-76 31 429 429 c235 235 428 428 428
428 0 0 26 -13 57 -29z"/>
</g>
</svg>
